HIERARCHY
ROOT Pelvis
{
	OFFSET 0.000000 0.000000 0.000000
	CHANNELS 6 Xposition Yposition Zposition Xrotation Yrotation Zrotation
	JOINT LeftUpLeg_virtual
	{
		OFFSET 0.000000 0.000000 0.000000
		CHANNELS 3 Xrotation Yrotation Zrotation
		JOINT LeftUpLeg
		{
			OFFSET 18.735201 -5.666702 -4.541200
			CHANNELS 3 Xrotation Yrotation Zrotation
			JOINT LeftLeg
			{
				OFFSET -0.021200 -31.938179 0.493100
				CHANNELS 3 Xrotation Yrotation Zrotation
				JOINT LeftFoot
				{
					OFFSET 0.021200 -31.938179 -4.336299
					CHANNELS 3 Xrotation Yrotation Zrotation
					JOINT LeftToeBase
					{
						OFFSET 0.943001 -26.722000 15.023500
						CHANNELS 3 Xrotation Yrotation Zrotation
						End Site
						{
							OFFSET 0 0 0
						}
					}
				}
			}
		}
	}
	JOINT RightUpLeg_virtual
	{
		OFFSET 0.000000 0.000000 0.000000
		CHANNELS 3 Xrotation Yrotation Zrotation
		JOINT RightUpLeg
		{
			OFFSET -18.735201 -5.666702 -4.541200
			CHANNELS 3 Xrotation Yrotation Zrotation
			JOINT RightLeg
			{
				OFFSET 0.018946 -31.938133 0.493100
				CHANNELS 3 Xrotation Yrotation Zrotation
				JOINT RightFoot
				{
					OFFSET -0.018946 -31.938126 -4.336299
					CHANNELS 3 Xrotation Yrotation Zrotation
					JOINT RightToeBase
					{
						OFFSET -0.943001 -26.722004 15.023500
						CHANNELS 3 Xrotation Yrotation Zrotation
						End Site
						{
							OFFSET 0 0 0
						}
					}
				}
			}
		}
	}
	JOINT Hips_virtual
	{
		OFFSET 0.000000 0.000000 0.000000
		CHANNELS 3 Xrotation Yrotation Zrotation
		JOINT Hips
		{
			OFFSET -0.000000 -0.000000 -0.000000
			CHANNELS 3 Xrotation Yrotation Zrotation
			JOINT Spine
			{
				OFFSET 0.000000 10.199997 -0.299500
				CHANNELS 3 Xrotation Yrotation Zrotation
				JOINT Spine1
				{
					OFFSET 0.000000 11.900002 -1.516600
					CHANNELS 3 Xrotation Yrotation Zrotation
					JOINT Spine2
					{
						OFFSET 0.000000 13.600006 -2.842500
						CHANNELS 3 Xrotation Yrotation Zrotation
						JOINT Neck_virtual
						{
							OFFSET 0.000000 0.000000 0.000000
							CHANNELS 3 Xrotation Yrotation Zrotation
							JOINT Neck
							{
								OFFSET 0.000000 9.624100 -2.890100
								CHANNELS 3 Xrotation Yrotation Zrotation
								JOINT Head
								{
									OFFSET 0.000000 14.068802 -1.351900
									CHANNELS 3 Xrotation Yrotation Zrotation
									End Site
									{
										OFFSET 0 0 0
									}
								}
							}
						}
						JOINT LeftShoulder_virtual
						{
							OFFSET 0.000000 0.000000 0.000000
							CHANNELS 3 Xrotation Yrotation Zrotation
							JOINT LeftShoulder
							{
								OFFSET 15.263000 10.923401 -0.547700
								CHANNELS 3 Xrotation Yrotation Zrotation
								JOINT LeftArm
								{
									OFFSET 25.438599 -2.830597 -13.032500
									CHANNELS 3 Xrotation Yrotation Zrotation
									JOINT LeftForeArm
									{
										OFFSET 29.960503 0.000000 0.000000
										CHANNELS 3 Xrotation Yrotation Zrotation
										JOINT LeftHand
										{
											OFFSET 27.849251 0.000000 0.000000
											CHANNELS 3 Xrotation Yrotation Zrotation
											End Site
											{
												OFFSET 0 0 0
											}
										}
									}
								}
							}
						}
						JOINT RightShoulder_virtual
						{
							OFFSET 0.000000 0.000000 0.000000
							CHANNELS 3 Xrotation Yrotation Zrotation
							JOINT RightShoulder
							{
								OFFSET -15.263000 10.923401 -0.547700
								CHANNELS 3 Xrotation Yrotation Zrotation
								JOINT RightArm
								{
									OFFSET -25.438599 -2.830597 -13.032500
									CHANNELS 3 Xrotation Yrotation Zrotation
									JOINT RightForeArm
									{
										OFFSET -29.960503 0.000000 0.000000
										CHANNELS 3 Xrotation Yrotation Zrotation
										JOINT RightHand
										{
											OFFSET -27.849251 0.000000 0.000000
											CHANNELS 3 Xrotation Yrotation Zrotation
											End Site
											{
												OFFSET 0 0 0
											}
										}
									}
								}
							}
						}
					}
				}
			}
		}
	}
}
MOTION
Frames: 13
Frame Time: 0.03333333
-5.234040 89.682129 6.538795 0.000000 0.000000 0.000000 -2.678699 -61.180627 -3.990527 -40.368648 6.475345 35.584688 42.476554 -7.408453 -8.740737 18.781675 -10.058326 -16.415301 0.000000 0.000000 0.000000 -2.813426 -60.272588 -3.699001 -16.484098 -9.614625 -11.921457 46.477931 -4.736005 -4.775194 -32.616284 -6.785905 -11.624107 0.000000 0.000000 0.000000 -1.812786 -59.273659 -3.195426 -0.958705 0.086936 -0.020053 16.558257 14.596232 0.487650 -2.465303 -5.650718 -0.803107 0.000000 0.000000 0.000000 -8.837217 -4.418869 -1.702925 -6.421794 8.344375 4.373333 0.000000 0.000000 0.000000 -4.240247 -7.382547 -2.182593 -37.721335 -24.736915 -17.675396 45.997748 14.222636 -53.954154 97.908146 -74.379913 100.755665 0.000000 0.000000 0.000000 -11.837354 -4.508186 -1.190199 7.622501 47.024872 16.211623 36.707895 -12.659173 61.361368 -72.560153 85.982287 50.352902 0.000000 0.000000 0.000000 
-5.243771 89.698509 6.623074 0.000000 0.000000 0.000000 -2.606464 -60.951119 -4.014251 -40.352638 6.398967 35.567073 41.835349 -7.057743 -9.012800 18.015088 -9.742991 -16.503900 0.000000 0.000000 0.000000 -2.869291 -59.983193 -3.827467 -16.644913 -9.944790 -11.790243 46.945284 -4.971320 -4.785312 -33.131079 -6.610022 -12.392028 0.000000 0.000000 0.000000 -1.847491 -59.080235 -3.332291 -0.926092 0.033843 -0.001416 16.664924 14.590927 0.324861 -2.497992 -5.755506 -0.908366 0.000000 0.000000 0.000000 -8.641334 -4.440134 -1.705130 -6.382800 8.286249 4.206790 0.000000 0.000000 0.000000 -4.127369 -7.455659 -2.346840 -37.799315 -24.330879 -17.835236 45.609954 14.755512 -53.603164 91.288238 -74.363084 93.812635 0.000000 0.000000 0.000000 -11.898254 -4.510062 -1.122737 7.707126 47.123227 16.093451 36.319623 -11.962126 62.110967 -68.317656 86.131780 45.960507 0.000000 0.000000 0.000000 
-5.183532 89.607857 6.722061 0.000000 0.000000 0.000000 -2.421365 -60.369843 -4.027545 -40.383111 6.339115 35.607484 41.287841 -6.515986 -9.389896 17.509743 -9.134406 -15.894460 0.000000 0.000000 0.000000 -2.822746 -59.378058 -3.931055 -16.472731 -10.421287 -11.835664 47.316388 -5.016455 -4.892390 -34.311244 -6.117319 -12.634062 0.000000 0.000000 0.000000 -1.846125 -58.750910 -3.469225 -0.914688 0.010661 0.021339 16.842073 14.590510 0.001986 -2.442449 -5.903913 -0.893703 0.000000 0.000000 0.000000 -8.485104 -4.469351 -1.609098 -6.447259 8.342009 3.881011 0.000000 0.000000 0.000000 -3.749888 -7.505851 -2.354644 -38.094902 -24.296381 -18.410741 45.924959 15.246818 -52.671058 84.451614 -74.246622 86.449807 0.000000 0.000000 0.000000 -11.670691 -4.521385 -0.947161 7.988843 47.154202 15.646947 36.492926 -11.352790 62.305846 -64.150052 86.536543 41.481262 0.000000 0.000000 0.000000 
-5.085363 89.402817 6.831963 0.000000 0.000000 0.000000 -2.156396 -59.584549 -4.026898 -40.561034 6.179916 35.642721 41.189012 -5.975672 -9.723114 17.244047 -8.408204 -14.758085 0.000000 0.000000 0.000000 -2.683834 -58.615987 -3.992933 -16.242193 -10.879299 -12.107251 47.774308 -4.696665 -5.011096 -35.772730 -5.348195 -11.815911 0.000000 0.000000 0.000000 -1.778349 -58.320472 -3.567958 -0.920706 0.047701 0.026427 17.011213 14.575646 -0.406294 -2.291679 -6.117911 -0.752142 0.000000 0.000000 0.000000 -8.310530 -4.560861 -1.427667 -6.535706 8.508415 3.430067 0.000000 0.000000 0.000000 -3.244883 -7.555613 -2.227506 -38.522185 -24.536418 -19.351692 47.080272 15.362316 -51.437810 78.142623 -74.102348 79.519917 0.000000 0.000000 0.000000 -11.318400 -4.596717 -0.662698 8.509683 47.186239 14.718673 37.305407 -10.584838 61.846045 -54.048930 86.948663 30.991212 0.000000 0.000000 0.000000 
-4.974164 89.129745 6.995358 0.000000 0.000000 0.000000 -1.865953 -58.753656 -4.003181 -40.997903 5.911442 35.762164 41.610172 -5.646217 -9.987786 17.028633 -7.881319 -13.544129 0.000000 0.000000 0.000000 -2.481509 -57.833288 -3.993949 -16.312271 -11.484878 -12.736477 48.558434 -4.102645 -4.957003 -37.178250 -4.439344 -10.083559 0.000000 0.000000 0.000000 -1.633359 -57.860896 -3.610006 -0.928716 0.108682 0.016202 17.119039 14.490605 -0.854825 -2.082170 -6.386277 -0.461822 0.000000 0.000000 0.000000 -8.023301 -4.756726 -1.147649 -6.552805 8.778760 2.880672 0.000000 0.000000 0.000000 -2.688725 -7.638937 -1.981826 -38.977970 -24.765170 -20.479344 48.885061 14.912162 -50.145524 72.747286 -74.121295 73.492289 0.000000 0.000000 0.000000 -11.052477 -4.774882 -0.260210 9.195309 47.347121 13.324095 38.628022 -9.134212 60.795794 -33.506640 86.917770 9.977089 0.000000 0.000000 0.000000 
-4.911708 88.787849 7.166882 0.000000 0.000000 0.000000 -1.545726 -57.996564 -3.926312 -41.717494 5.490586 36.003450 42.505432 -5.617794 -10.221745 16.724405 -7.764142 -12.621543 0.000000 0.000000 0.000000 -2.223102 -57.077777 -3.919458 -16.936448 -12.383654 -13.714012 49.945687 -3.431560 -4.669151 -38.581239 -3.518734 -8.131449 0.000000 0.000000 0.000000 -1.418134 -57.494477 -3.580387 -0.929491 0.151948 -0.009071 17.098743 14.333422 -1.276164 -1.877429 -6.690769 -0.039309 0.000000 0.000000 0.000000 -7.640762 -5.041589 -0.764109 -6.444855 9.131778 2.265867 0.000000 0.000000 0.000000 -2.182307 -7.790083 -1.650048 -39.378233 -24.792526 -21.516865 51.006760 13.949832 -49.117598 67.172984 -74.322867 67.377070 0.000000 0.000000 0.000000 -11.012224 -5.047057 0.242079 9.909756 47.724892 11.535267 40.203381 -6.712818 59.322946 -12.005827 86.151266 -12.017150 0.000000 0.000000 0.000000 
-4.941899 88.429359 7.445507 0.000000 0.000000 0.000000 -1.184073 -57.374334 -3.761814 -42.602533 4.877437 36.267393 43.849763 -5.848686 -10.423546 16.384599 -8.040789 -11.980763 0.000000 0.000000 0.000000 -1.925336 -56.426703 -3.771450 -17.863829 -13.300747 -14.854719 51.900535 -2.790227 -4.274822 -40.082723 -2.685592 -6.522925 0.000000 0.000000 0.000000 -1.146975 -57.182726 -3.472028 -0.912777 0.158133 -0.028254 16.981998 14.185292 -1.616721 -1.700281 -6.965547 0.455467 0.000000 0.000000 0.000000 -7.227506 -5.360145 -0.315017 -6.164830 9.524735 1.591199 0.000000 0.000000 0.000000 -1.783519 -7.964682 -1.288583 -39.674189 -24.498309 -22.145010 53.094110 12.578691 -48.493414 60.326649 -74.494811 60.143333 0.000000 0.000000 0.000000 -11.160653 -5.368392 0.761389 10.487820 48.373497 9.529090 42.246424 -3.876754 57.483576 2.650584 84.866603 -27.111743 0.000000 0.000000 0.000000 
-5.028192 88.051628 7.894283 0.000000 0.000000 0.000000 -0.796424 -56.918948 -3.508325 -43.531825 4.035845 36.407815 45.514574 -6.162148 -10.594254 15.920157 -8.486568 -11.350797 0.000000 0.000000 0.000000 -1.558718 -55.966307 -3.515360 -18.781164 -13.850233 -15.954705 54.173307 -2.115037 -4.013789 -41.544523 -1.977395 -5.260956 0.000000 0.000000 0.000000 -0.956931 -56.957740 -3.366003 -0.872400 0.146577 -0.025090 16.841063 14.172046 -1.903648 -1.603355 -7.123487 0.899377 0.000000 0.000000 0.000000 -6.901414 -5.620149 0.136275 -5.743973 9.891611 0.870200 0.000000 0.000000 0.000000 -1.459064 -8.115735 -0.971534 -39.848741 -23.870410 -22.096328 54.883381 10.966095 -48.218496 52.918308 -74.583002 52.552541 0.000000 0.000000 0.000000 -11.357441 -5.655851 1.194938 10.764444 49.303181 7.616355 44.835978 -1.217172 55.459944 11.675995 82.951992 -36.581855 0.000000 0.000000 0.000000 
-5.154722 87.588196 8.389755 0.000000 0.000000 0.000000 -0.440439 -56.630902 -3.200588 -44.334136 3.063154 36.294095 47.191348 -6.424359 -10.743463 15.028897 -8.864146 -10.522772 0.000000 0.000000 0.000000 -1.122375 -55.657285 -3.130576 -19.566170 -13.770280 -16.885278 56.408231 -1.276457 -4.078707 -42.953482 -1.388804 -4.020321 0.000000 0.000000 0.000000 -0.796431 -56.709018 -3.219872 -0.845268 0.143154 -0.011044 16.726669 14.424431 -2.078230 -1.587620 -7.111880 1.193607 0.000000 0.000000 0.000000 -6.765310 -5.721298 0.470355 -5.230015 10.169600 0.131595 0.000000 0.000000 0.000000 -1.240407 -8.148464 -0.767203 -39.957880 -23.143271 -21.340176 56.077007 9.111863 -48.136328 45.871346 -74.397699 45.503697 0.000000 0.000000 0.000000 -11.408627 -5.823966 1.463103 10.655326 50.324195 5.974730 47.639770 0.885101 54.021773 15.938482 80.133029 -41.395751 0.000000 0.000000 0.000000 
-5.331951 87.077988 8.898949 0.000000 0.000000 0.000000 -0.148787 -56.382303 -2.874718 -44.855867 2.293509 35.949844 48.530584 -6.581330 -10.966462 13.622587 -9.005562 -9.482023 0.000000 0.000000 0.000000 -0.605224 -55.402666 -2.639544 -20.154305 -13.255658 -17.679431 58.246357 -0.290364 -4.295639 -44.311242 -1.019777 -2.511685 0.000000 0.000000 0.000000 -0.499688 -56.206938 -2.931300 -0.839340 0.148021 -0.015876 16.670388 15.041560 -2.123353 -1.566178 -6.880958 1.290783 0.000000 0.000000 0.000000 -6.665132 -5.646577 0.580200 -4.658388 10.299474 -0.599167 0.000000 0.000000 0.000000 -1.150250 -8.023563 -0.714303 -40.045054 -22.590181 -19.964199 56.409050 6.642276 -47.975191 39.592400 -73.704845 39.357053 0.000000 0.000000 0.000000 -11.266442 -5.793394 1.537163 10.142361 51.381017 4.632428 49.974431 2.690553 53.893423 16.435991 75.862925 -42.843680 0.000000 0.000000 0.000000 
-5.553333 86.583817 9.308922 0.000000 0.000000 0.000000 0.103268 -55.877286 -2.497981 -45.180404 2.184850 35.511533 49.271284 -6.609182 -11.385548 11.882871 -8.871232 -8.308187 0.000000 0.000000 0.000000 -0.136549 -55.030277 -2.152355 -20.865367 -12.923431 -18.565725 59.915881 0.618759 -4.332237 -45.227289 -1.005046 -0.943530 0.000000 0.000000 0.000000 -0.045769 -55.348530 -2.461219 -0.844534 0.170606 -0.058402 16.568944 16.030965 -2.103813 -1.484721 -6.487754 1.219986 0.000000 0.000000 0.000000 -6.460058 -5.444325 0.442891 -4.075182 10.220570 -1.243158 0.000000 0.000000 0.000000 -1.232642 -7.794404 -0.780166 -40.112195 -22.489897 -18.190764 55.445563 3.369209 -47.745505 34.275491 -72.104244 34.277721 0.000000 0.000000 0.000000 -10.900121 -5.593058 1.460762 9.237276 52.369502 3.631020 51.509298 4.559387 55.802874 16.064484 70.457923 -43.831124 0.000000 0.000000 0.000000 
-5.822525 86.178360 9.641441 0.000000 0.000000 0.000000 0.308194 -54.895924 -2.050769 -45.355062 2.826331 35.021805 49.328111 -6.571230 -12.009826 10.014089 -8.597060 -7.124256 0.000000 0.000000 0.000000 0.210652 -54.249286 -1.674996 -21.774565 -12.968548 -19.553298 61.573076 1.168664 -4.170627 -45.358002 -1.339205 0.024584 0.000000 0.000000 0.000000 0.621056 -53.954823 -1.736773 -0.877079 0.195361 -0.111147 16.277847 17.252469 -2.121828 -1.306003 -6.040527 1.103462 0.000000 0.000000 0.000000 -6.081377 -5.256333 0.152550 -3.493922 9.920286 -1.744374 0.000000 0.000000 0.000000 -1.483329 -7.542026 -0.843698 -40.087135 -22.965948 -16.208380 53.134063 -0.842225 -47.517315 30.265005 -69.442383 30.606727 0.000000 0.000000 0.000000 -10.272425 -5.351778 1.327768 8.013957 53.153447 3.000447 52.704547 6.116092 59.825388 17.020080 65.266098 -46.556079 0.000000 0.000000 0.000000 
-6.142773 85.890343 9.938023 0.000000 0.000000 0.000000 0.587065 -53.417267 -1.431499 -45.468672 3.899297 34.427599 48.912965 -6.704198 -12.718044 8.226651 -8.512417 -6.288528 0.000000 0.000000 0.000000 0.571255 -52.910627 -1.079654 -22.323480 -13.363858 -20.378272 62.679608 1.149954 -3.934345 -45.243248 -2.006242 -0.100717 0.000000 0.000000 0.000000 1.430254 -52.071689 -0.759105 -0.915722 0.219779 -0.145416 15.687503 18.502535 -2.323552 -1.011269 -5.751710 1.101924 0.000000 0.000000 0.000000 -5.557859 -5.304647 -0.096248 -2.975680 9.374749 -2.043780 0.000000 0.000000 0.000000 -1.888993 -7.457840 -0.759583 -39.851934 -23.960107 -14.119100 49.593017 -5.543211 -47.763636 28.077808 -66.198084 28.885597 0.000000 0.000000 0.000000 -9.454790 -5.252127 1.259529 6.796143 53.734813 2.414929 54.350315 7.074432 65.416704 20.038462 61.374878 -51.687501 0.000000 0.000000 0.000000 
